<svg xmlns="http://www.w3.org/2000/svg" viewBox="0 0 16 16"><defs><style>.a{fill:#b3cfef;}</style></defs><path class="a" d="M13,11.21v2c0,.45-.51.89-1.39,1.23A10.44,10.44,0,0,1,8,15a10.48,10.48,0,0,1-3.62-.58C3.5,14.08,3,13.64,3,13.19v-2a8.25,8.25,0,0,0,5,1.28A8.25,8.25,0,0,0,13,11.21Z"/><path class="a" d="M13,4.35V6.17c0,.43-.51.86-1.39,1.18A10.73,10.73,0,0,1,8,7.9a10.77,10.77,0,0,1-3.62-.55C3.5,7,3,6.6,3,6.17V4.35A8.51,8.51,0,0,0,8,5.58,8.51,8.51,0,0,0,13,4.35Z"/><path class="a" d="M13,7.84V9.66c0,.43-.51.86-1.39,1.18A10.73,10.73,0,0,1,8,11.39a10.77,10.77,0,0,1-3.62-.55C3.5,10.52,3,10.09,3,9.66V7.84A8.51,8.51,0,0,0,8,9.07,8.51,8.51,0,0,0,13,7.84Z"/><path class="a" d="M13.09,2.64c0,.39-.51.79-1.41,1.1A11.7,11.7,0,0,1,8,4.26a11.74,11.74,0,0,1-3.68-.52c-.9-.3-1.41-.71-1.41-1.1s.51-.81,1.41-1.12A12,12,0,0,1,8,1a12,12,0,0,1,3.68.52C12.58,1.82,13.09,2.23,13.09,2.64Z"/></svg>