<svg xmlns="http://www.w3.org/2000/svg" width="1792" height="1792"><defs><style>.a{fill:#b3cfef;}</style></defs><path class="a" d="M1671.845 984.08q0-32.855-49.752-32.855H600.775q-37.548 0-80.26 20.182-42.71 20.182-67.117 49.282l-275.982 340.753q-16.896 22.529-16.896 37.548 0 32.855 49.751 32.855H1231.59q37.549 0 80.73-20.652 43.18-20.651 66.648-49.751l275.981-340.753q16.897-20.651 16.897-36.61zM600.775 831.07h720.93V680.876q0-37.549-26.283-63.833-26.284-26.283-63.833-26.283H690.892q-37.549 0-63.833-26.284t-26.284-63.833v-60.077q0-37.549-26.284-63.833T510.66 350.45H210.271q-37.548 0-63.832 26.284t-26.284 63.833v800.72l240.31-295.694q41.303-49.751 108.89-82.137 67.588-32.385 131.42-32.385zM1792 984.08q0 58.2-43.18 112.645l-276.92 340.752q-40.365 49.752-108.891 82.137-68.526 32.386-131.42 32.386H210.271q-86.361 0-148.316-61.955T0 1341.729V440.566q0-86.362 61.955-148.317 61.955-61.955 148.316-61.955H510.66q86.361 0 148.316 61.955t61.955 148.317v30.039h510.66q86.36 0 148.316 61.954 61.955 61.955 61.955 148.317V831.07h180.232q50.69 0 92.933 22.998 42.242 22.999 62.893 66.18Q1792 950.285 1792 984.08Z"/></svg>