<svg xmlns="http://www.w3.org/2000/svg" width="32" height="32" viewBox="0 0 8.467 8.467"><defs><style>.a{fill:#b3cfef;}</style></defs><path class="a" d="M4.23.794a.264.265 0 0 0-.26.27v.277a2.91 2.91 0 0 0-2.627 2.633h-.277a.264.265 0 0 0-.027 0 .265.265 0 0 0 .027.53h.277A2.912 2.912 0 0 0 3.97 7.136v.278a.264.265 0 0 0 .529 0v-.278a2.914 2.914 0 0 0 2.627-2.632h.277a.264.265 0 1 0 0-.53h-.277A2.912 2.912 0 0 0 4.499 1.34v-.277a.264.265 0 0 0-.27-.27Zm-.26 1.08v.466a1.92 1.92 0 0 0-1.63 1.634h-.466a2.371 2.371 0 0 1 2.096-2.1Zm.529 0a2.373 2.373 0 0 1 2.096 2.1H6.13A1.922 1.922 0 0 0 4.5 2.34Zm-.529 1v.042a.264.265 0 0 0 .529 0v-.04c.555.106.99.541 1.097 1.098h-.041a.264.265 0 0 0-.028 0 .265.265 0 0 0 .028.53h.04a1.384 1.384 0 0 1-1.096 1.098v-.04a.264.265 0 0 0-.294-.268.264.265 0 0 0-.235.268v.04a1.383 1.383 0 0 1-1.096-1.098h.04a.264.265 0 1 0 0-.53h-.04c.106-.557.54-.993 1.096-1.1Zm.265 1.1a.264.265 0 0 0-.264.265.264.265 0 0 0 .264.264.264.265 0 0 0 .263-.264.264.265 0 0 0-.263-.265Zm-2.361.53h.466a1.922 1.922 0 0 0 1.63 1.634v.467a2.373 2.373 0 0 1-2.096-2.101Zm4.255 0h.466a2.374 2.374 0 0 1-2.096 2.1v-.467a1.924 1.924 0 0 0 1.63-1.633Z" color="#000" font-family="sans-serif" font-weight="400" overflow="visible" style="line-height:normal;font-variant-ligatures:normal;font-variant-position:normal;font-variant-caps:normal;font-variant-numeric:normal;font-variant-alternates:normal;font-feature-settings:normal;text-indent:0;text-align:start;text-decoration-line:none;text-decoration-style:solid;text-decoration-color:#000;text-transform:none;text-orientation:mixed;shape-padding:0;isolation:auto;mix-blend-mode:normal"/></svg>