<svg xmlns="http://www.w3.org/2000/svg" viewBox="0 0 16 16">
  <path d="M11.75,1.7A9.4,9.4,0,0,0,8,1a9.4,9.4,0,0,0-3.75.7c-1.06.47-1.64,1.12-1.64,1.83v.09h0v8.85c0,.71.58,1.36,1.64,1.83A9.4,9.4,0,0,0,8,15a9.4,9.4,0,0,0,3.75-.7c1.06-.47,1.64-1.12,1.64-1.83v-9C13.39,2.82,12.81,2.17,11.75,1.7ZM8,14.57a8.92,8.92,0,0,1-3.57-.67C3.55,13.51,3,13,3,12.47V4.55a3.76,3.76,0,0,0,1.21.82A9.4,9.4,0,0,0,8,6.06a9.47,9.47,0,0,0,3.75-.69A3.71,3.71,0,0,0,13,4.55v7.92c0,.52-.51,1-1.39,1.43A8.92,8.92,0,0,1,8,14.57ZM11.57,5A8.92,8.92,0,0,1,8,5.64,8.92,8.92,0,0,1,4.43,5C3.55,4.58,3,4.05,3,3.53s.51-1,1.39-1.43A8.92,8.92,0,0,1,8,1.43a8.92,8.92,0,0,1,3.57.67C12.45,2.49,13,3,13,3.53S12.45,4.58,11.57,5Z"/>
</svg>
