<svg id="Layer_1" data-name="Layer 1" xmlns="http://www.w3.org/2000/svg" viewBox="0 0 120 130"><defs><style>.cls-1{fill:#ea2328;}</style></defs><path id="Logo-Icon" class="cls-1" d="M100,81.23a7.07,7.07,0,0,1-6,7.32c-6.84,1.2-21.2,1.93-33.23,1.93s-26.39-.73-33.23-1.93a7.08,7.08,0,0,1-6-7.32V58.44a7.59,7.59,0,0,1,6-7.33A76.79,76.79,0,0,1,38,50.43a2.58,2.58,0,0,1,2.52,2.77V69.14c7.07,0,13.21-.43,20.3-.43s13.23.4,20.29.43V53.2a2.58,2.58,0,0,1,2.52-2.77,76.91,76.91,0,0,1,10.42.68,7.59,7.59,0,0,1,6,7.33Zm-39.2-68.6a58.37,58.37,0,1,0,58,58.37,58.18,58.18,0,0,0-58-58.37Z"/></svg>